<svg fill="none" height="15" viewBox="0 0 14 15" width="14" xmlns="http://www.w3.org/2000/svg" xmlns:xlink="http://www.w3.org/1999/xlink"><clipPath id="a"><path d="m0 .442871h14v14h-14z"/></clipPath><g clip-path="url(#a)" stroke="#000001" stroke-linecap="round" stroke-linejoin="round"><path d="m3.54999.942871h-2.5c-.276145 0-.500002.223859-.500002.499999v12.00003c0 .2761.223857.5.500002.5h2.5c.27614 0 .5-.2239.5-.5v-12.00003c0-.27614-.22386-.499999-.5-.499999z"/><path d="m7.04999 2.94287h-2.5c-.27614 0-.5.22386-.5.5v10.00003c0 .2761.22386.5.5.5h2.5c.27614 0 .5-.2239.5-.5v-10.00003c0-.27614-.22386-.5-.5-.5z"/><path d="m10.3965 2.6692-1.94014.48554c-.26789.06704-.4307.33854-.36366.60643l2.4277 9.70083c.067.2679.3385.4307.6064.3637l1.9402-.4856c.2679-.067.4307-.3385.3636-.6064l-2.4276-9.70084c-.0671-.26788-.3386-.4307-.6065-.36366z"/><path d="m.549988 10.4429h3.500002"/><path d="m4.04999 9.44287h3.5"/><path d="m10.05 11.4429 2.88-.72"/></g></svg>