<svg fill="none" height="20" viewBox="0 0 20 20" width="20" xmlns="http://www.w3.org/2000/svg"><g fill="#212121"><path d="m2 4.5c0-1.38071 1.11929-2.5 2.5-2.5h11c1.3807 0 2.5 1.11929 2.5 2.5v11c0 1.3807-1.1193 2.5-2.5 2.5h-11c-1.38071 0-2.5-1.1193-2.5-2.5zm2.5-1.5c-.82843 0-1.5.67157-1.5 1.5v11c0 .8284.67157 1.5 1.5 1.5h11c.8284 0 1.5-.6716 1.5-1.5v-11c0-.82843-.6716-1.5-1.5-1.5z"/><path d="m11 12c0-.5523.4477-1 1-1h2c.5523 0 1 .4477 1 1v2c0 .5523-.4477 1-1 1h-2c-.5523 0-1-.4477-1-1z"/><path d="m11 6c0-.55228.4477-1 1-1h2c.5523 0 1 .44772 1 1v2c0 .55228-.4477 1-1 1h-2c-.5523 0-1-.44772-1-1z"/><path d="m5 12c0-.5523.44772-1 1-1h2c.55228 0 1 .4477 1 1v2c0 .5523-.44772 1-1 1h-2c-.55228 0-1-.4477-1-1z"/><path d="m5 6c0-.55228.44772-1 1-1h2c.55228 0 1 .44772 1 1v2c0 .55228-.44772 1-1 1h-2c-.55228 0-1-.44772-1-1z"/></g></svg>