<svg height="24" viewBox="0 0 24 24" width="24" xmlns="http://www.w3.org/2000/svg"><path d="m14.9978834 5c3.8659933 0 7 3.13400675 7 7 0 3.7854517-3.0047833 6.8690987-6.7593502 6.995941l-.2406498.004059h-5.99576684c-3.86599325 0-7-3.1340068-7-7 0-3.78545172 3.00478338-6.86909868 6.75935025-6.99594098l.24064975-.00405902zm-.2478834 7.5c-.6903559 0-1.25.5596441-1.25 1.25s.5596441 1.25 1.25 1.25 1.25-.5596441 1.25-1.25-.5596441-1.25-1.25-1.25zm-6.75-3.5c-.37969577 0-.69349096.28215388-.74315338.64822944l-.00684662.10177056v1.498l-1.5.0007458c-.41421356 0-.75.3357864-.75.75 0 .3796957.28215388.6934909.64822944.7431533l.10177056.0068467 1.5-.0007458v1.502c0 .4142136.33578644.75.75.75.37969577 0 .69349096-.2821539.74315338-.6482294l.00684662-.1017706v-1.502l1.5.0007458c.4142136 0 .75-.3357865.75-.75 0-.3796958-.2821539-.693491-.6482294-.7431534l-.1017706-.0068466-1.5-.0007458v-1.498c0-.41421356-.33578644-.75-.75-.75zm8.75 0c-.6903559 0-1.25.55964406-1.25 1.25 0 .6903559.5596441 1.25 1.25 1.25s1.25-.5596441 1.25-1.25c0-.69035594-.5596441-1.25-1.25-1.25z" fill="#212121"/></svg>