<svg fill="none" height="24" viewBox="0 0 24 24" width="24" xmlns="http://www.w3.org/2000/svg"><g stroke="#292d32" stroke-linecap="round" stroke-linejoin="round" stroke-width="1.5"><path d="m17 21h-10c-4 0-5-1-5-5v-8c0-4 1-5 5-5h10c4 0 5 1 5 5v8c0 4-1 5-5 5z"/><path d="m14 8h5"/><path d="m15 12h4"/><path d="m17 16h2"/><path d="m8.49994 11.2899c.99964 0 1.80996-.8103 1.80996-1.80998 0-.99963-.81032-1.81-1.80996-1.81-.99963 0-1.81.81037-1.81 1.81 0 .99968.81037 1.80998 1.81 1.80998z"/><path d="m12 16.33c-.14-1.45-1.29-2.59-2.74-2.72-.5-.05-1.01-.05-1.52 0-1.45.14-2.6 1.27-2.74 2.72"/></g></svg>